{
	"accessors" : 
	[
		{
			"bufferView" : 2,
			"byteOffset" : 0,
			"componentType" : 5126,
			"count" : 598,
			"max" : 
			[
				1,
				1,
				1,
				1
			],
			"min" : 
			[
				1,
				1,
				1,
				1
			],
			"name" : "accessor_color_m0-PolyGem25_-29904",
			"type" : "VEC4"
		},
		{
			"bufferView" : 2,
			"byteOffset" : 9568,
			"componentType" : 5126,
			"count" : 5764,
			"max" : 
			[
				1,
				1,
				1,
				1
			],
			"min" : 
			[
				0.006584956776350737,
				0.006584956776350737,
				0.006584956776350737,
				1
			],
			"name" : "accessor_color_m1-PolyPaper22_-33122",
			"type" : "VEC4"
		},
		{
			"bufferView" : 0,
			"byteOffset" : 0,
			"componentType" : 5123,
			"count" : 834,
			"max" : 
			[
				597
			],
			"min" : 
			[
				0
			],
			"name" : "accessor_indices_0_m0-PolyGem25_-29904",
			"type" : "SCALAR"
		},
		{
			"bufferView" : 0,
			"byteOffset" : 1668,
			"componentType" : 5123,
			"count" : 8094,
			"max" : 
			[
				5763
			],
			"min" : 
			[
				0
			],
			"name" : "accessor_indices_0_m1-PolyPaper22_-33122",
			"type" : "SCALAR"
		},
		{
			"bufferView" : 1,
			"byteOffset" : 7176,
			"componentType" : 5126,
			"count" : 598,
			"max" : 
			[
				0.9850053,
				0.9987587,
				0.9853583
			],
			"min" : 
			[
				-0.9939523,
				-0.9888806999999999,
				-0.9856798
			],
			"name" : "accessor_normal_m0-PolyGem25_-29904",
			"type" : "VEC3"
		},
		{
			"bufferView" : 1,
			"byteOffset" : 83520,
			"componentType" : 5126,
			"count" : 5764,
			"max" : 
			[
				0.9988433,
				0.999034,
				0.9997115
			],
			"min" : 
			[
				-0.9989604,
				-0.9988292,
				-0.9993320999999999
			],
			"name" : "accessor_normal_m1-PolyPaper22_-33122",
			"type" : "VEC3"
		},
		{
			"bufferView" : 1,
			"byteOffset" : 0,
			"componentType" : 5126,
			"count" : 598,
			"max" : 
			[
				-0.4270732,
				1.698712,
				-0.274171
			],
			"min" : 
			[
				-0.6947092,
				1.609656,
				-0.4835333
			],
			"name" : "accessor_position_m0-PolyGem25_-29904",
			"type" : "VEC3"
		},
		{
			"bufferView" : 1,
			"byteOffset" : 14352,
			"componentType" : 5126,
			"count" : 5764,
			"max" : 
			[
				1.618698,
				2.23969,
				0.5075788
			],
			"min" : 
			[
				-0.9356609,
				1.118609,
				-1.739528
			],
			"name" : "accessor_position_m1-PolyPaper22_-33122",
			"type" : "VEC3"
		}
	],
	"asset" : 
	{
		"copyright" : "Unknown",
		"generator" : "glTF 1-to-2 Upgrader for Google Blocks",
		"version" : "2.0"
	},
	"bufferViews" : 
	[
		{
			"buffer" : 0,
			"byteLength" : 17856,
			"byteOffset" : 0,
			"name" : "ushortBufferView",
			"target" : 34963
		},
		{
			"buffer" : 0,
			"byteLength" : 152688,
			"byteOffset" : 17856,
			"byteStride" : 12,
			"name" : "vec3BufferView",
			"target" : 34962
		},
		{
			"buffer" : 0,
			"byteLength" : 101792,
			"byteOffset" : 170544,
			"byteStride" : 16,
			"name" : "vec4BufferView",
			"target" : 34962
		}
	],
	"buffers" : 
	[
		{
			"byteLength" : 272336,
			"name" : "model",
			"uri" : "model.bin"
		}
	],
	"materials" : 
	[
		{
			"alphaMode" : "OPAQUE",
			"doubleSided" : false,
			"name" : "BlocksPaper",
			"pbrMetallicRoughness" : 
			{
				"baseColorFactor" : 
				[
					1,
					1,
					1,
					1
				],
				"metallicFactor" : 0,
				"roughnessFactor" : 0.6
			}
		},
		{
			"alphaMode" : "BLEND",
			"doubleSided" : false,
			"name" : "BlocksGlass",
			"pbrMetallicRoughness" : 
			{
				"baseColorFactor" : 
				[
					0.2,
					0.2,
					1,
					0.3
				],
				"metallicFactor" : 1,
				"roughnessFactor" : 0.4
			}
		},
		{
			"alphaMode" : "OPAQUE",
			"doubleSided" : true,
			"name" : "BlocksGem",
			"pbrMetallicRoughness" : 
			{
				"baseColorFactor" : 
				[
					1,
					0.4,
					1,
					1
				],
				"metallicFactor" : 0,
				"roughnessFactor" : 0.1
			}
		}
	],
	"meshes" : 
	[
		{
			"name" : "mesh_m0-PolyGem25_-29904",
			"primitives" : 
			[
				{
					"attributes" : 
					{
						"COLOR_0" : 0,
						"NORMAL" : 4,
						"POSITION" : 6
					},
					"indices" : 2,
					"material" : 2,
					"mode" : 4
				}
			]
		},
		{
			"name" : "mesh_m1-PolyPaper22_-33122",
			"primitives" : 
			[
				{
					"attributes" : 
					{
						"COLOR_0" : 1,
						"NORMAL" : 5,
						"POSITION" : 7
					},
					"indices" : 3,
					"material" : 0,
					"mode" : 4
				}
			]
		}
	],
	"nodes" : 
	[
		{
			"matrix" : 
			[
				1,
				0,
				0,
				0,
				0,
				1,
				0,
				0,
				0,
				0,
				1,
				0,
				0,
				0,
				0,
				1
			],
			"mesh" : 1,
			"name" : "node_MeshObject1196583680-PolyPaper22"
		},
		{
			"matrix" : 
			[
				1,
				0,
				0,
				0,
				0,
				1,
				0,
				0,
				0,
				0,
				1,
				0,
				0,
				0,
				0,
				1
			],
			"mesh" : 0,
			"name" : "node_MeshObject801273280-PolyGem25"
		}
	],
	"scene" : 0,
	"scenes" : 
	[
		{
			"extras" : {},
			"name" : "defaultScene",
			"nodes" : 
			[
				1,
				0
			]
		}
	]
}